# xmcd CD database file
# Copyright (C) 1993-1996 Ti Kan
#
# Track frame offsets:
# 200
# 15992
# 28600
# 39230
# 54642
# 74665
# 83957
# 98460
# 121180
# 142545
# 159225
# 170467
# 187095
# 206780
# 222552
# 245982
# 265852
# 289372
# 310192
# 322375
#
# Disc length: 4520 seconds
#
# Revision: 0
# Processed by: cddbd v1.4b41PL1 Copyright (c) Steve Scherf et al.
# Submitted via: inCDius 1.1b5
#
DISCID=2711a614
DTITLE=The Gaither Vocal Band - Back Home In Indiana
DYEAR=1900
DGENRE=
TTITLE0=John the Revelator
TTITLE1=When We All Get Together With The Lord
TTITLE2=In That Great Gettin' Up Morning
TTITLE3=My Lord And I
TTITLE4=Daystar (Shine Down On Me)
TTITLE5=Goodby World, Goodbye
TTITLE6=When He Was On The Cross (I Was On His Mind)
TTITLE7=The Old Rugged Cross Made The Difference
TTITLE8=When Jesus Lifts The Load
TTITLE9=Jesus Built This Church On Love
TTITLE10=The Old Landmark
TTITLE11=On My Way To Heaven
TTITLE12=Tears Are A Language God Understands
TTITLE13=Joy Comes in The Morning
TTITLE14=Wait'll You See My Brand New Home
TTITLE15=We'll Be There
TTITLE16=I'll Worship Only At The Feet Of Jesus
TTITLE17=Loving God, Loving Each Other
TTITLE18=Without Him
TTITLE19=I Believe In A Hill Called Mount Calvary
EXTD=
EXTT0=
EXTT1=
EXTT2=
EXTT3=
EXTT4=
EXTT5=
EXTT6=
EXTT7=
EXTT8=
EXTT9=
EXTT10=
EXTT11=
EXTT12=
EXTT13=
EXTT14=
EXTT15=
EXTT16=
EXTT17=
EXTT18=
EXTT19=
PLAYORDER=
